<svg xmlns="http://www.w3.org/2000/svg" viewBox="0 0 512 512">
  <defs>
    <linearGradient id="bg" x1="0" y1="0" x2="0" y2="1">
      <stop offset="0%" stop-color="#1a2980"/>
      <stop offset="100%" stop-color="#26d0ce"/>
    </linearGradient>
  </defs>
  <rect width="512" height="512" rx="80" fill="url(#bg)"/>
  <!-- Body -->
  <ellipse cx="256" cy="220" rx="90" ry="75" fill="#FF6B35"/>
  <!-- Eyes -->
  <ellipse cx="230" cy="205" rx="16" ry="18" fill="white"/>
  <ellipse cx="282" cy="205" rx="16" ry="18" fill="white"/>
  <circle cx="233" cy="208" r="8" fill="#333"/>
  <circle cx="285" cy="208" r="8" fill="#333"/>
  <circle cx="236" cy="204" r="3" fill="white"/>
  <circle cx="288" cy="204" r="3" fill="white"/>
  <!-- Mouth -->
  <path d="M240 240 Q256 255 272 240" stroke="#c0392b" stroke-width="3" fill="none" stroke-linecap="round"/>
  <!-- Tentacles -->
  <rect x="176" y="290" width="16" height="70" rx="8" fill="#FF6B35" transform="rotate(-15 184 290)"/>
  <rect x="196" y="295" width="16" height="75" rx="8" fill="#FF6B35" transform="rotate(-8 204 295)"/>
  <rect x="218" y="295" width="16" height="78" rx="8" fill="#FF6B35" transform="rotate(-3 226 295)"/>
  <rect x="240" y="296" width="16" height="80" rx="8" fill="#FF6B35"/>
  <rect x="258" y="296" width="16" height="80" rx="8" fill="#FF6B35"/>
  <rect x="278" y="295" width="16" height="78" rx="8" fill="#FF6B35" transform="rotate(3 286 295)"/>
  <rect x="300" y="295" width="16" height="75" rx="8" fill="#FF6B35" transform="rotate(8 308 295)"/>
  <rect x="320" y="290" width="16" height="70" rx="8" fill="#FF6B35" transform="rotate(15 328 290)"/>
  <!-- Text -->
  <text x="256" y="440" text-anchor="middle" font-family="sans-serif" font-weight="900" font-size="48" fill="#FFD700">TINTI</text>
</svg>
